%TF.GenerationSoftware,KiCad,Pcbnew,(5.1.10)-1*%
%TF.CreationDate,2021-10-26T11:38:04-05:00*%
%TF.ProjectId,co2_project,636f325f-7072-46f6-9a65-63742e6b6963,rev?*%
%TF.SameCoordinates,Original*%
%TF.FileFunction,Soldermask,Bot*%
%TF.FilePolarity,Negative*%
%FSLAX46Y46*%
G04 Gerber Fmt 4.6, Leading zero omitted, Abs format (unit mm)*
G04 Created by KiCad (PCBNEW (5.1.10)-1) date 2021-10-26 11:38:04*
%MOMM*%
%LPD*%
G01*
G04 APERTURE LIST*
%ADD10O,1.700000X1.700000*%
%ADD11R,1.700000X1.700000*%
%ADD12C,3.200000*%
%ADD13R,1.800000X1.800000*%
%ADD14C,1.800000*%
%ADD15C,1.600000*%
%ADD16O,1.600000X1.600000*%
%ADD17C,1.524000*%
G04 APERTURE END LIST*
D10*
%TO.C,U7*%
X156370000Y-128000000D03*
X153830000Y-128000000D03*
X151290000Y-128000000D03*
D11*
X148750000Y-128000000D03*
%TD*%
D10*
%TO.C,U4*%
X141150000Y-69250000D03*
X141150000Y-71790000D03*
X141150000Y-74330000D03*
X141150000Y-76870000D03*
X141150000Y-79410000D03*
D11*
X141150000Y-81950000D03*
%TD*%
D10*
%TO.C,U6*%
X119300000Y-84540000D03*
X119300000Y-82000000D03*
X119300000Y-79460000D03*
X119300000Y-76920000D03*
X119300000Y-74380000D03*
X119300000Y-71840000D03*
D11*
X119300000Y-69300000D03*
%TD*%
D10*
%TO.C,U5*%
X111050000Y-69300000D03*
X111050000Y-71840000D03*
X111050000Y-74380000D03*
X111050000Y-76920000D03*
X111050000Y-79460000D03*
D11*
X111050000Y-82000000D03*
%TD*%
D10*
%TO.C,J1*%
X107500000Y-120390000D03*
X107500000Y-122930000D03*
X107500000Y-125470000D03*
X107500000Y-128010000D03*
D11*
X107500000Y-130550000D03*
%TD*%
D12*
%TO.C,*%
X105500000Y-64500000D03*
%TD*%
%TO.C,*%
X105500000Y-135500000D03*
%TD*%
%TO.C,*%
X163500000Y-135500000D03*
%TD*%
%TO.C,*%
X163500000Y-64500000D03*
%TD*%
D13*
%TO.C,D1*%
X158600000Y-75800000D03*
D14*
X158600000Y-73641000D03*
X158600000Y-71482000D03*
X158600000Y-69323000D03*
%TD*%
D15*
%TO.C,R1*%
X145800000Y-118100000D03*
D16*
X155960000Y-118100000D03*
%TD*%
%TO.C,R1*%
X155960000Y-114700000D03*
D15*
X145800000Y-114700000D03*
%TD*%
%TO.C,R1*%
X145700000Y-98050000D03*
D16*
X155860000Y-98050000D03*
%TD*%
D11*
%TO.C,U1*%
X121000000Y-125700000D03*
D10*
X121000000Y-123160000D03*
X121000000Y-120620000D03*
%TD*%
D17*
%TO.C,U2*%
X112980000Y-97730000D03*
X112980000Y-100270000D03*
X112980000Y-102810000D03*
X112980000Y-105350000D03*
X112980000Y-107890000D03*
X112980000Y-110430000D03*
X112980000Y-112970000D03*
X112980000Y-115510000D03*
X112980000Y-118050000D03*
X112980000Y-120590000D03*
X112980000Y-123130000D03*
X112980000Y-125670000D03*
X112980000Y-128210000D03*
X112980000Y-130750000D03*
X112980000Y-133290000D03*
X140920000Y-133290000D03*
X140920000Y-130750000D03*
X140920000Y-128210000D03*
X140920000Y-125670000D03*
X140920000Y-123130000D03*
X140920000Y-120590000D03*
X140920000Y-118050000D03*
X140920000Y-115510000D03*
X140920000Y-112970000D03*
X140920000Y-110430000D03*
X140920000Y-107890000D03*
X140920000Y-105350000D03*
X140920000Y-102810000D03*
X140920000Y-100270000D03*
X140920000Y-97730000D03*
%TD*%
D11*
%TO.C,U3*%
X151100000Y-69300000D03*
D10*
X151100000Y-71840000D03*
X151100000Y-74380000D03*
X151100000Y-76920000D03*
%TD*%
M02*
