M48
; DRILL file {KiCad (5.1.10)-1} date 10/26/21 11:38:26
; FORMAT={-:-/ absolute / inch / decimal}
; #@! TF.CreationDate,2021-10-26T11:38:26-05:00
; #@! TF.GenerationSoftware,Kicad,Pcbnew,(5.1.10)-1
; #@! TF.FileFunction,Plated,1,2,PTH
FMAT,2
INCH
T1C0.0300
T2C0.0315
T3C0.0354
T4C0.0394
%
G90
G05
T1
X4.448Y-3.8476
X4.448Y-3.9476
X4.448Y-4.0476
X4.448Y-4.1476
X4.448Y-4.2476
X4.448Y-4.3476
X4.448Y-4.4476
X4.448Y-4.5476
X4.448Y-4.6476
X4.448Y-4.7476
X4.448Y-4.8476
X4.448Y-4.9476
X4.448Y-5.0476
X4.448Y-5.1476
X4.448Y-5.2476
X5.548Y-3.8476
X5.548Y-3.9476
X5.548Y-4.0476
X5.548Y-4.1476
X5.548Y-4.2476
X5.548Y-4.3476
X5.548Y-4.4476
X5.548Y-4.5476
X5.548Y-4.6476
X5.548Y-4.7476
X5.548Y-4.8476
X5.548Y-4.9476
X5.548Y-5.0476
X5.548Y-5.1476
X5.548Y-5.2476
T2
X5.7362Y-3.8602
X5.7402Y-4.5157
X5.7402Y-4.6496
X6.1362Y-3.8602
X6.1402Y-4.5157
X6.1402Y-4.6496
T3
X6.2441Y-2.7293
X6.2441Y-2.8143
X6.2441Y-2.8993
X6.2441Y-2.9843
T4
X4.2323Y-4.7398
X4.2323Y-4.8398
X4.2323Y-4.9398
X4.2323Y-5.0398
X4.2323Y-5.1398
X4.372Y-2.7283
X4.372Y-2.8283
X4.372Y-2.9283
X4.372Y-3.0283
X4.372Y-3.1283
X4.372Y-3.2283
X4.6969Y-2.7283
X4.6969Y-2.8283
X4.6969Y-2.9283
X4.6969Y-3.0283
X4.6969Y-3.1283
X4.6969Y-3.2283
X4.6969Y-3.3283
X4.7638Y-4.7488
X4.7638Y-4.8488
X4.7638Y-4.9488
X5.5571Y-2.7264
X5.5571Y-2.8264
X5.5571Y-2.9264
X5.5571Y-3.0264
X5.5571Y-3.1264
X5.5571Y-3.2264
X5.8563Y-5.0394
X5.9488Y-2.7283
X5.9488Y-2.8283
X5.9488Y-2.9283
X5.9488Y-3.0283
X5.9563Y-5.0394
X6.0563Y-5.0394
X6.1563Y-5.0394
T0
M30
