%TF.GenerationSoftware,KiCad,Pcbnew,(5.1.10)-1*%
%TF.CreationDate,2021-10-26T11:38:04-05:00*%
%TF.ProjectId,co2_project,636f325f-7072-46f6-9a65-63742e6b6963,rev?*%
%TF.SameCoordinates,Original*%
%TF.FileFunction,Copper,L1,Top*%
%TF.FilePolarity,Positive*%
%FSLAX46Y46*%
G04 Gerber Fmt 4.6, Leading zero omitted, Abs format (unit mm)*
G04 Created by KiCad (PCBNEW (5.1.10)-1) date 2021-10-26 11:38:04*
%MOMM*%
%LPD*%
G01*
G04 APERTURE LIST*
%TA.AperFunction,ComponentPad*%
%ADD10O,1.700000X1.700000*%
%TD*%
%TA.AperFunction,ComponentPad*%
%ADD11R,1.700000X1.700000*%
%TD*%
%TA.AperFunction,ComponentPad*%
%ADD12R,1.800000X1.800000*%
%TD*%
%TA.AperFunction,ComponentPad*%
%ADD13C,1.800000*%
%TD*%
%TA.AperFunction,ComponentPad*%
%ADD14C,1.600000*%
%TD*%
%TA.AperFunction,ComponentPad*%
%ADD15O,1.600000X1.600000*%
%TD*%
%TA.AperFunction,ComponentPad*%
%ADD16C,1.524000*%
%TD*%
%TA.AperFunction,Conductor*%
%ADD17C,0.333000*%
%TD*%
%TA.AperFunction,Conductor*%
%ADD18C,0.250000*%
%TD*%
G04 APERTURE END LIST*
D10*
%TO.P,U7,4*%
%TO.N,Net-(U2-Pad27)*%
X156370000Y-128000000D03*
%TO.P,U7,3*%
%TO.N,Net-(U7-Pad3)*%
X153830000Y-128000000D03*
%TO.P,U7,2*%
%TO.N,Net-(D1-Pad2)*%
X151290000Y-128000000D03*
D11*
%TO.P,U7,1*%
%TO.N,Net-(U2-Pad24)*%
X148750000Y-128000000D03*
%TD*%
D10*
%TO.P,U4,6*%
%TO.N,N/C*%
X141150000Y-69250000D03*
%TO.P,U4,5*%
X141150000Y-71790000D03*
%TO.P,U4,4*%
X141150000Y-74330000D03*
%TO.P,U4,3*%
%TO.N,Net-(U2-Pad29)*%
X141150000Y-76870000D03*
%TO.P,U4,2*%
%TO.N,Net-(U2-Pad28)*%
X141150000Y-79410000D03*
D11*
%TO.P,U4,1*%
%TO.N,N/C*%
X141150000Y-81950000D03*
%TD*%
D10*
%TO.P,U6,7*%
%TO.N,N/C*%
X119300000Y-84540000D03*
%TO.P,U6,6*%
X119300000Y-82000000D03*
%TO.P,U6,5*%
X119300000Y-79460000D03*
%TO.P,U6,4*%
%TO.N,Net-(U2-Pad28)*%
X119300000Y-76920000D03*
%TO.P,U6,3*%
%TO.N,Net-(U2-Pad29)*%
X119300000Y-74380000D03*
%TO.P,U6,2*%
%TO.N,Net-(J1-Pad5)*%
X119300000Y-71840000D03*
D11*
%TO.P,U6,1*%
%TO.N,Net-(J1-Pad1)*%
X119300000Y-69300000D03*
%TD*%
D10*
%TO.P,U5,6*%
%TO.N,N/C*%
X111050000Y-69300000D03*
%TO.P,U5,5*%
X111050000Y-71840000D03*
%TO.P,U5,4*%
X111050000Y-74380000D03*
%TO.P,U5,3*%
X111050000Y-76920000D03*
%TO.P,U5,2*%
%TO.N,Net-(J1-Pad5)*%
X111050000Y-79460000D03*
D11*
%TO.P,U5,1*%
%TO.N,Net-(J1-Pad1)*%
X111050000Y-82000000D03*
%TD*%
D10*
%TO.P,J1,5*%
%TO.N,Net-(J1-Pad5)*%
X107500000Y-120390000D03*
%TO.P,J1,4*%
%TO.N,Net-(J1-Pad4)*%
X107500000Y-122930000D03*
%TO.P,J1,3*%
%TO.N,Net-(J1-Pad3)*%
X107500000Y-125470000D03*
%TO.P,J1,2*%
%TO.N,Net-(J1-Pad2)*%
X107500000Y-128010000D03*
D11*
%TO.P,J1,1*%
%TO.N,Net-(J1-Pad1)*%
X107500000Y-130550000D03*
%TD*%
D12*
%TO.P,D1,1*%
%TO.N,Net-(D1-Pad1)*%
X158600000Y-75800000D03*
D13*
%TO.P,D1,2*%
%TO.N,Net-(D1-Pad2)*%
X158600000Y-73641000D03*
%TO.P,D1,3*%
%TO.N,Net-(D1-Pad3)*%
X158600000Y-71482000D03*
%TO.P,D1,4*%
%TO.N,Net-(D1-Pad4)*%
X158600000Y-69323000D03*
%TD*%
D14*
%TO.P,R1,1*%
%TO.N,Net-(R1-Pad1)*%
X145800000Y-118100000D03*
D15*
%TO.P,R1,2*%
%TO.N,Net-(D1-Pad4)*%
X155960000Y-118100000D03*
%TD*%
%TO.P,R1,2*%
%TO.N,Net-(D1-Pad3)*%
X155960000Y-114700000D03*
D14*
%TO.P,R1,1*%
%TO.N,Net-(R2-Pad1)*%
X145800000Y-114700000D03*
%TD*%
%TO.P,R1,1*%
%TO.N,Net-(R3-Pad1)*%
X145700000Y-98050000D03*
D15*
%TO.P,R1,2*%
%TO.N,Net-(D1-Pad1)*%
X155860000Y-98050000D03*
%TD*%
D11*
%TO.P,U1,1*%
%TO.N,Net-(J1-Pad5)*%
X121000000Y-125700000D03*
D10*
%TO.P,U1,2*%
%TO.N,Net-(J1-Pad1)*%
X121000000Y-123160000D03*
%TO.P,U1,3*%
%TO.N,Net-(U1-Pad3)*%
X121000000Y-120620000D03*
%TD*%
D16*
%TO.P,U2,1*%
%TO.N,Net-(U2-Pad1)*%
X112980000Y-97730000D03*
%TO.P,U2,2*%
%TO.N,Net-(U2-Pad2)*%
X112980000Y-100270000D03*
%TO.P,U2,3*%
%TO.N,Net-(U2-Pad3)*%
X112980000Y-102810000D03*
%TO.P,U2,4*%
%TO.N,Net-(U2-Pad4)*%
X112980000Y-105350000D03*
%TO.P,U2,5*%
%TO.N,Net-(U2-Pad5)*%
X112980000Y-107890000D03*
%TO.P,U2,6*%
%TO.N,Net-(U2-Pad6)*%
X112980000Y-110430000D03*
%TO.P,U2,7*%
%TO.N,Net-(U2-Pad7)*%
X112980000Y-112970000D03*
%TO.P,U2,8*%
%TO.N,Net-(U2-Pad8)*%
X112980000Y-115510000D03*
%TO.P,U2,9*%
%TO.N,Net-(U2-Pad9)*%
X112980000Y-118050000D03*
%TO.P,U2,10*%
%TO.N,Net-(U2-Pad10)*%
X112980000Y-120590000D03*
%TO.P,U2,11*%
%TO.N,Net-(U2-Pad11)*%
X112980000Y-123130000D03*
%TO.P,U2,12*%
%TO.N,Net-(U2-Pad12)*%
X112980000Y-125670000D03*
%TO.P,U2,13*%
%TO.N,Net-(U2-Pad13)*%
X112980000Y-128210000D03*
%TO.P,U2,14*%
%TO.N,Net-(J1-Pad5)*%
X112980000Y-130750000D03*
%TO.P,U2,15*%
%TO.N,Net-(J1-Pad1)*%
X112980000Y-133290000D03*
%TO.P,U2,16*%
%TO.N,Net-(U2-Pad16)*%
X140920000Y-133290000D03*
%TO.P,U2,17*%
%TO.N,Net-(U2-Pad17)*%
X140920000Y-130750000D03*
%TO.P,U2,18*%
%TO.N,Net-(U2-Pad18)*%
X140920000Y-128210000D03*
%TO.P,U2,19*%
%TO.N,Net-(U2-Pad19)*%
X140920000Y-125670000D03*
%TO.P,U2,20*%
%TO.N,Net-(R1-Pad1)*%
X140920000Y-123130000D03*
%TO.P,U2,21*%
%TO.N,Net-(R2-Pad1)*%
X140920000Y-120590000D03*
%TO.P,U2,22*%
%TO.N,Net-(U2-Pad22)*%
X140920000Y-118050000D03*
%TO.P,U2,23*%
%TO.N,Net-(U2-Pad23)*%
X140920000Y-115510000D03*
%TO.P,U2,24*%
%TO.N,Net-(U2-Pad24)*%
X140920000Y-112970000D03*
%TO.P,U2,25*%
%TO.N,Net-(D1-Pad2)*%
X140920000Y-110430000D03*
%TO.P,U2,26*%
%TO.N,Net-(U1-Pad3)*%
X140920000Y-107890000D03*
%TO.P,U2,27*%
%TO.N,Net-(U2-Pad27)*%
X140920000Y-105350000D03*
%TO.P,U2,28*%
%TO.N,Net-(U2-Pad28)*%
X140920000Y-102810000D03*
%TO.P,U2,29*%
%TO.N,Net-(U2-Pad29)*%
X140920000Y-100270000D03*
%TO.P,U2,30*%
%TO.N,Net-(R3-Pad1)*%
X140920000Y-97730000D03*
%TD*%
D11*
%TO.P,U3,1*%
%TO.N,Net-(U2-Pad23)*%
X151100000Y-69300000D03*
D10*
%TO.P,U3,2*%
%TO.N,Net-(U2-Pad22)*%
X151100000Y-71840000D03*
%TO.P,U3,3*%
%TO.N,Net-(J1-Pad1)*%
X151100000Y-74380000D03*
%TO.P,U3,4*%
%TO.N,Net-(U2-Pad24)*%
X151100000Y-76920000D03*
%TD*%
D17*
%TO.N,Net-(D1-Pad1)*%
X158600000Y-75800000D02*
X158600000Y-90100000D01*
D18*
X158600000Y-90100000D02*
X158600000Y-98000000D01*
X158550000Y-98050000D02*
X155860000Y-98050000D01*
X158600000Y-98000000D02*
X158550000Y-98050000D01*
D17*
%TO.N,Net-(D1-Pad2)*%
X158299298Y-73641000D02*
X158140298Y-73800000D01*
X158600000Y-73641000D02*
X158299298Y-73641000D01*
X158600000Y-73641000D02*
X155859000Y-73641000D01*
X155859000Y-73641000D02*
X155900000Y-73682000D01*
X155900000Y-73682000D02*
X155900000Y-85500000D01*
X155900000Y-85500000D02*
X150900000Y-85500000D01*
X150900000Y-85500000D02*
X150900000Y-94900000D01*
D18*
X140270000Y-110700000D02*
X140570000Y-110400000D01*
X150900000Y-94900000D02*
X150900000Y-110150000D01*
X150620000Y-110430000D02*
X140920000Y-110430000D01*
X150900000Y-110150000D02*
X150620000Y-110430000D01*
D17*
%TO.N,Net-(D1-Pad3)*%
X158600000Y-71482000D02*
X161982000Y-71482000D01*
X161982000Y-71482000D02*
X162000000Y-71500000D01*
X162000000Y-71500000D02*
X162000000Y-114750000D01*
X156010000Y-114750000D02*
X155960000Y-114700000D01*
X162000000Y-114750000D02*
X156010000Y-114750000D01*
%TO.N,Net-(D1-Pad4)*%
X158600000Y-69323000D02*
X163823000Y-69323000D01*
X163823000Y-69323000D02*
X164000000Y-69500000D01*
X164000000Y-69500000D02*
X164000000Y-118000000D01*
X156060000Y-118000000D02*
X155960000Y-118100000D01*
X164000000Y-118000000D02*
X156060000Y-118000000D01*
D18*
%TO.N,Net-(R1-Pad1)*%
X145800000Y-118100000D02*
X145800000Y-123150000D01*
X140940000Y-123150000D02*
X140920000Y-123130000D01*
X145800000Y-123150000D02*
X140940000Y-123150000D01*
%TO.N,Net-(R2-Pad1)*%
X145800000Y-114700000D02*
X143400000Y-114700000D01*
X143400000Y-114700000D02*
X143400000Y-120600000D01*
X143390000Y-120590000D02*
X140920000Y-120590000D01*
X143400000Y-120600000D02*
X143390000Y-120590000D01*
%TO.N,Net-(R3-Pad1)*%
X140590000Y-97400000D02*
X140920000Y-97730000D01*
X141240000Y-98050000D02*
X140920000Y-97730000D01*
X145700000Y-98050000D02*
X141240000Y-98050000D01*
%TO.N,Net-(U2-Pad22)*%
X140870000Y-118100000D02*
X140920000Y-118050000D01*
X134100000Y-64400000D02*
X134100000Y-118100000D01*
X153500000Y-64400000D02*
X134100000Y-64400000D01*
X153500000Y-71800000D02*
X153500000Y-64400000D01*
X134100000Y-118100000D02*
X140870000Y-118100000D01*
X153540000Y-71840000D02*
X153500000Y-71800000D01*
X151100000Y-71840000D02*
X153540000Y-71840000D01*
%TO.N,Net-(U2-Pad23)*%
X136300000Y-107900000D02*
X136340000Y-107860000D01*
X136300000Y-66000000D02*
X136300000Y-107900000D01*
X151100000Y-66000000D02*
X136300000Y-66000000D01*
X151100000Y-69300000D02*
X151100000Y-66000000D01*
X136300000Y-107900000D02*
X136300000Y-115550000D01*
X140880000Y-115550000D02*
X140920000Y-115510000D01*
X136300000Y-115550000D02*
X140880000Y-115550000D01*
%TO.N,Net-(U2-Pad24)*%
X140740000Y-113150000D02*
X140920000Y-112970000D01*
X138300000Y-113150000D02*
X140740000Y-113150000D01*
X146900000Y-86900000D02*
X138300000Y-86900000D01*
X146920000Y-76920000D02*
X146900000Y-76940000D01*
X138300000Y-86900000D02*
X138300000Y-113150000D01*
X146900000Y-76940000D02*
X146900000Y-86900000D01*
X151100000Y-76920000D02*
X146920000Y-76920000D01*
%TO.N,Net-(U2-Pad27)*%
X140490000Y-105400000D02*
X140570000Y-105320000D01*
%TD*%
M02*
